<?xml version="1.0" encoding="UTF-8" standalone="no"?>
<svg
   xmlns:dc="http://purl.org/dc/elements/1.1/"
   xmlns:cc="http://creativecommons.org/ns#"
   xmlns:rdf="http://www.w3.org/1999/02/22-rdf-syntax-ns#"
   xmlns:svg="http://www.w3.org/2000/svg"
   xmlns="http://www.w3.org/2000/svg"
   xmlns:sodipodi="http://sodipodi.sourceforge.net/DTD/sodipodi-0.dtd"
   xmlns:inkscape="http://www.inkscape.org/namespaces/inkscape"
   fill="#000000"
   height="24"
   viewBox="0 0 24 24"
   width="24"
   id="svg2"
   version="1.1"
   inkscape:version="0.91 r13725"
   sodipodi:docname="consumer.svg"
   inkscape:export-filename="/Users/dsd/Documents/Projects/sixhack17/images/consumer.png"
   inkscape:export-xdpi="3840"
   inkscape:export-ydpi="3840">
  <metadata
     id="metadata12">
    <rdf:RDF>
      <cc:Work
         rdf:about="">
        <dc:format>image/svg+xml</dc:format>
        <dc:type
           rdf:resource="http://purl.org/dc/dcmitype/StillImage" />
        <dc:title></dc:title>
      </cc:Work>
    </rdf:RDF>
  </metadata>
  <defs
     id="defs10" />
  <sodipodi:namedview
     pagecolor="#ffffff"
     bordercolor="#666666"
     borderopacity="1"
     objecttolerance="10"
     gridtolerance="10"
     guidetolerance="10"
     inkscape:pageopacity="0"
     inkscape:pageshadow="2"
     inkscape:window-width="1920"
     inkscape:window-height="1152"
     id="namedview8"
     showgrid="false"
     inkscape:zoom="27.812867"
     inkscape:cx="28.278753"
     inkscape:cy="12.811973"
     inkscape:window-x="534"
     inkscape:window-y="46"
     inkscape:window-maximized="0"
     inkscape:current-layer="svg2" />
  <path
     d="M0 0h24v24H0z"
     fill="none"
     id="path4" />
  <path
     d="M 12 4 C 9.79 4 8 5.79 8 8 C 8 10.21 9.79 12 12 12 C 14.21 12 16 10.21 16 8 C 16 5.79 14.21 4 12 4 z M 12 14 C 9.33 14 4 15.34 4 18 L 4 20 L 12.111328 20 C 12.066282 19.841921 12.035156 19.682815 12.035156 19.517578 C 12.035156 18.663099 12.706068 17.992187 13.560547 17.992188 C 14.043273 17.992188 14.508151 18.215204 14.810547 18.570312 C 15.112945 18.215204 15.575868 17.992188 16.058594 17.992188 C 16.913075 17.992188 17.583984 18.663099 17.583984 19.517578 C 17.583984 19.682815 17.552859 19.84191 17.507812 20 L 20 20 L 20 18 C 20 15.34 14.67 14 12 14 z M 17.507812 20 L 12.111328 20 C 12.352169 20.845176 13.20457 21.625347 14.408203 22.716797 L 14.810547 23.082031 L 15.212891 22.71875 C 16.416523 21.624963 17.266972 20.845234 17.507812 20 z "
     id="path6" />
  <g
     style="fill:#000000"
     id="g4844">
    <path
       id="path4836"
       d="M 0,0 24,0 24,24 0,24 Z"
       inkscape:connector-curvature="0"
       style="fill:none" />
  </g>
</svg>
