<?xml version="1.0" encoding="UTF-8" standalone="no"?>
<!-- Created with Inkscape (http://www.inkscape.org/) -->

<svg
   xmlns:dc="http://purl.org/dc/elements/1.1/"
   xmlns:cc="http://creativecommons.org/ns#"
   xmlns:rdf="http://www.w3.org/1999/02/22-rdf-syntax-ns#"
   xmlns:svg="http://www.w3.org/2000/svg"
   xmlns="http://www.w3.org/2000/svg"
   xmlns:sodipodi="http://sodipodi.sourceforge.net/DTD/sodipodi-0.dtd"
   xmlns:inkscape="http://www.inkscape.org/namespaces/inkscape"
   width="16in"
   height="9in"
   viewBox="0 0 1440 810"
   id="svg4850"
   version="1.1"
   inkscape:version="0.91 r13725"
   sodipodi:docname="triangle_1.svg"
   inkscape:export-filename="/Users/dsd/Documents/Projects/sixhack17/images/triangle_1.png"
   inkscape:export-xdpi="192"
   inkscape:export-ydpi="192">
  <defs
     id="defs4852">
    <marker
       inkscape:stockid="Arrow1Mend"
       orient="auto"
       refY="0.0"
       refX="0.0"
       id="marker7009"
       style="overflow:visible;"
       inkscape:isstock="true">
      <path
         id="path7011"
         d="M 0.0,0.0 L 5.0,-5.0 L -12.5,0.0 L 5.0,5.0 L 0.0,0.0 z "
         style="fill-rule:evenodd;stroke:#000000;stroke-width:1pt;stroke-opacity:1;fill:#000000;fill-opacity:1"
         transform="scale(0.4) rotate(180) translate(10,0)" />
    </marker>
    <marker
       inkscape:stockid="Arrow1Lend"
       orient="auto"
       refY="0.0"
       refX="0.0"
       id="marker6945"
       style="overflow:visible;"
       inkscape:isstock="true">
      <path
         id="path6947"
         d="M 0.0,0.0 L 5.0,-5.0 L -12.5,0.0 L 5.0,5.0 L 0.0,0.0 z "
         style="fill-rule:evenodd;stroke:#000000;stroke-width:1pt;stroke-opacity:1;fill:#000000;fill-opacity:1"
         transform="scale(0.8) rotate(180) translate(12.5,0)" />
    </marker>
    <marker
       inkscape:isstock="true"
       style="overflow:visible;"
       id="marker6726"
       refX="0.0"
       refY="0.0"
       orient="auto"
       inkscape:stockid="Arrow1Mend"
       inkscape:collect="always">
      <path
         transform="scale(0.4) rotate(180) translate(10,0)"
         style="fill-rule:evenodd;stroke:#000000;stroke-width:1pt;stroke-opacity:1;fill:#000000;fill-opacity:1"
         d="M 0.0,0.0 L 5.0,-5.0 L -12.5,0.0 L 5.0,5.0 L 0.0,0.0 z "
         id="path6728" />
    </marker>
    <marker
       inkscape:stockid="Arrow1Mend"
       orient="auto"
       refY="0.0"
       refX="0.0"
       id="Arrow1Mend"
       style="overflow:visible;"
       inkscape:isstock="true"
       inkscape:collect="always">
      <path
         id="path5701"
         d="M 0.0,0.0 L 5.0,-5.0 L -12.5,0.0 L 5.0,5.0 L 0.0,0.0 z "
         style="fill-rule:evenodd;stroke:#000000;stroke-width:1pt;stroke-opacity:1;fill:#000000;fill-opacity:1"
         transform="scale(0.4) rotate(180) translate(10,0)" />
    </marker>
    <marker
       inkscape:stockid="Arrow1Lend"
       orient="auto"
       refY="0.0"
       refX="0.0"
       id="Arrow1Lend"
       style="overflow:visible;"
       inkscape:isstock="true">
      <path
         id="path5695"
         d="M 0.0,0.0 L 5.0,-5.0 L -12.5,0.0 L 5.0,5.0 L 0.0,0.0 z "
         style="fill-rule:evenodd;stroke:#000000;stroke-width:1pt;stroke-opacity:1;fill:#000000;fill-opacity:1"
         transform="scale(0.8) rotate(180) translate(12.5,0)" />
    </marker>
    <marker
       inkscape:stockid="Arrow1Lstart"
       orient="auto"
       refY="0.0"
       refX="0.0"
       id="Arrow1Lstart"
       style="overflow:visible"
       inkscape:isstock="true">
      <path
         id="path5692"
         d="M 0.0,0.0 L 5.0,-5.0 L -12.5,0.0 L 5.0,5.0 L 0.0,0.0 z "
         style="fill-rule:evenodd;stroke:#000000;stroke-width:1pt;stroke-opacity:1;fill:#000000;fill-opacity:1"
         transform="scale(0.8) translate(12.5,0)" />
    </marker>
    <marker
       inkscape:stockid="Arrow2Lend"
       orient="auto"
       refY="0.0"
       refX="0.0"
       id="marker5968"
       style="overflow:visible;"
       inkscape:isstock="true">
      <path
         id="path5970"
         style="fill-rule:evenodd;stroke-width:0.625;stroke-linejoin:round;stroke:#000000;stroke-opacity:1;fill:#000000;fill-opacity:1"
         d="M 8.7185878,4.0337352 L -2.2072895,0.016013256 L 8.7185884,-4.0017078 C 6.9730900,-1.6296469 6.9831476,1.6157441 8.7185878,4.0337352 z "
         transform="scale(1.1) rotate(180) translate(1,0)" />
    </marker>
    <marker
       inkscape:stockid="Arrow2Lend"
       orient="auto"
       refY="0.0"
       refX="0.0"
       id="Arrow2Lend"
       style="overflow:visible;"
       inkscape:isstock="true">
      <path
         id="path5713"
         style="fill-rule:evenodd;stroke-width:0.625;stroke-linejoin:round;stroke:#000000;stroke-opacity:1;fill:#000000;fill-opacity:1"
         d="M 8.7185878,4.0337352 L -2.2072895,0.016013256 L 8.7185884,-4.0017078 C 6.9730900,-1.6296469 6.9831476,1.6157441 8.7185878,4.0337352 z "
         transform="scale(1.1) rotate(180) translate(1,0)" />
    </marker>
  </defs>
  <sodipodi:namedview
     id="base"
     pagecolor="#ffffff"
     bordercolor="#666666"
     borderopacity="1.0"
     inkscape:pageopacity="0.0"
     inkscape:pageshadow="2"
     inkscape:zoom="0.97083333"
     inkscape:cx="720"
     inkscape:cy="464.57444"
     inkscape:document-units="px"
     inkscape:current-layer="layer1"
     showgrid="false"
     units="in"
     width="19in"
     inkscape:window-width="1920"
     inkscape:window-height="1152"
     inkscape:window-x="0"
     inkscape:window-y="0"
     inkscape:window-maximized="1" />
  <metadata
     id="metadata4855">
    <rdf:RDF>
      <cc:Work
         rdf:about="">
        <dc:format>image/svg+xml</dc:format>
        <dc:type
           rdf:resource="http://purl.org/dc/dcmitype/StillImage" />
        <dc:title></dc:title>
      </cc:Work>
    </rdf:RDF>
  </metadata>
  <g
     inkscape:label="Layer 1"
     inkscape:groupmode="layer"
     id="layer1"
     transform="translate(0,-242.3622)">
    <path
       style="fill:none"
       inkscape:connector-curvature="0"
       d="m 1053.8258,694.12631 295.8935,0 0,300 -295.8935,0 z"
       id="path5549" />
    <path
       style="fill:#0e4f5d;fill-opacity:1"
       inkscape:connector-curvature="0"
       d="m 240.28071,744.12614 c -27.625,0 -50,22.375 -50,50 0,27.625 22.375,50 50,50 27.625,0 50,-22.375 50,-50 0,-27.625 -22.375,-50 -50,-50 z m 0,125 c -33.375,0 -100,16.75 -100,50 l 0,25 101.3916,0 c -0.56313,-1.97599 -0.95212,-3.96481 -0.95212,-6.03028 0,-10.68098 8.38639,-19.06738 19.06738,-19.06737 6.03408,0 11.84505,2.7877 15.625,7.22655 3.77998,-4.43885 9.56652,-7.22655 15.60059,-7.22655 10.68101,0 19.06738,8.38639 19.06738,19.06737 0,2.06547 -0.389,4.05415 -0.95213,6.03028 l 31.1523,0 0,-25 c 0,-33.25 -66.625,-50 -100,-50 z m 68.84765,75 -67.45605,0 c 3.01051,10.5647 13.66552,20.31684 28.71094,33.95996 l 5.0293,4.56543 5.0293,-4.54102 c 15.0454,-13.67233 25.67601,-23.41895 28.68651,-33.98437 z"
       id="path6" />
    <path
       style="fill:#0e4f5d;fill-opacity:1"
       inkscape:connector-curvature="0"
       d="m 1201.6493,738.38884 c -68.0555,0 -123.1657,56 -123.1657,125 0,69 55.1102,125 123.1657,125 68.1788,0 123.4122,-56 123.4122,-125 0,-69 -55.2334,-125 -123.4122,-125 z m 0.1233,225 c -54.4938,0 -98.6312,-44.75 -98.6312,-100 0,-55.25 44.1374,-100 98.6312,-100 54.4937,0 98.6311,44.75 98.6311,100 0,55.25 -44.1374,100 -98.6311,100 z m 43.1511,-112.5 c 10.233,0 18.4933,-8.375 18.4933,-18.75 0,-10.375 -8.2603,-18.75 -18.4933,-18.75 -10.233,0 -18.4933,8.375 -18.4933,18.75 0,10.375 8.2603,18.75 18.4933,18.75 z m -86.3023,0 c 10.233,0 18.4934,-8.375 18.4934,-18.75 0,-10.375 -8.2604,-18.75 -18.4934,-18.75 -10.233,0 -18.4933,8.375 -18.4933,18.75 0,10.375 8.2603,18.75 18.4933,18.75 z m 43.1512,81.25 c 28.7263,0 53.1375,-18.25 63.0006,-43.75 l -126.0013,0 c 9.8631,25.5 34.2743,43.75 63.0007,43.75 z"
       id="path5551" />
    <path
       style="fill:none;fill-rule:evenodd;stroke:#000000;stroke-width:10;stroke-linecap:butt;stroke-linejoin:miter;stroke-miterlimit:4;stroke-dasharray:none;stroke-opacity:1;marker-end:url(#marker7009)"
       d="m 1048.6538,864.89439 -667.46782,0"
       id="path6514"
       inkscape:connector-curvature="0"
       inkscape:export-xdpi="192"
       inkscape:export-ydpi="192" />
    <g
       style="fill:#000000"
       id="g6578"
       transform="matrix(-5.3347639,0,0,5.3347639,1058.5236,728.2592)"
       inkscape:export-xdpi="192"
       inkscape:export-ydpi="192">
      <path
         id="path6568"
         d="M 20,2 4,2 C 2.9,2 2.01,2.9 2.01,4 L 2,22 6,18 20,18 c 1.1,0 2,-0.9 2,-2 L 22,4 C 22,2.9 21.1,2 20,2 Z m -2,12 -12,0 0,-2 12,0 0,2 z m 0,-3 -12,0 0,-2 12,0 0,2 z M 18,8 6,8 6,6 18,6 18,8 Z"
         inkscape:connector-curvature="0" />
      <path
         id="path6570"
         d="M 0,0 24,0 24,24 0,24 Z"
         inkscape:connector-curvature="0"
         style="fill:none" />
    </g>
    <path
       style="fill:none;fill-rule:evenodd;stroke:#000000;stroke-width:10;stroke-linecap:butt;stroke-linejoin:miter;stroke-miterlimit:4;stroke-dasharray:none;stroke-opacity:1;marker-end:url(#Arrow1Mend)"
       d="M 329.92953,717.59825 554.77929,587.78117"
       id="path6490"
       inkscape:connector-curvature="0" />
    <path
       inkscape:connector-curvature="0"
       id="path6724"
       d="M 871.17953,580.39619 1096.0293,710.21322"
       style="fill:none;fill-rule:evenodd;stroke:#000000;stroke-width:10;stroke-linecap:butt;stroke-linejoin:miter;stroke-miterlimit:4;stroke-dasharray:none;stroke-opacity:1;marker-end:url(#marker6726)" />
    <path
       style="opacity:1;fill:#ffffff;fill-opacity:1;stroke:none;stroke-width:10;stroke-miterlimit:4;stroke-dasharray:none;stroke-opacity:1"
       d="m 211.19135,815.28366 a 41.333881,40.60553 0 0 0 29.71094,12.38281 41.333881,40.60553 0 0 0 29.65624,-12.38281 l -59.36718,0 z"
       id="path8620"
       inkscape:connector-curvature="0" />
    <path
       style="fill:#0e4f5d;fill-opacity:1"
       inkscape:connector-curvature="0"
       d="m 691.93825,557.18623 0,-84.18529 56.12352,0 0,84.18529 70.15441,0 0,-112.24707 42.09264,0 L 720,318.66123 579.69118,444.93916 l 42.09265,0 0,112.24707 z"
       id="path8692" />
  </g>
</svg>
